<svg width="22" height="22" viewBox="0 0 22 22" fill="none" xmlns="http://www.w3.org/2000/svg">
<path d="M15.3542 3.26333V1.83333C15.3542 1.45749 15.0425 1.14583 14.6667 1.14583C14.2909 1.14583 13.9792 1.45749 13.9792 1.83333V3.20833H8.02088V1.83333C8.02088 1.45749 7.70921 1.14583 7.33338 1.14583C6.95755 1.14583 6.64588 1.45749 6.64588 1.83333V3.26333C4.17088 3.49249 2.97005 4.96833 2.78671 7.15916C2.76838 7.42499 2.98838 7.64499 3.24505 7.64499H18.755C19.0209 7.64499 19.2409 7.41583 19.2134 7.15916C19.03 4.96833 17.8292 3.49249 15.3542 3.26333Z" fill="white"/>
<path opacity="0.4" d="M18.3333 9.01999C18.8375 9.01999 19.25 9.43249 19.25 9.93666V15.5833C19.25 18.3333 17.875 20.1667 14.6667 20.1667H7.33333C4.125 20.1667 2.75 18.3333 2.75 15.5833V9.93666C2.75 9.43249 3.1625 9.01999 3.66667 9.01999H18.3333Z" fill="white"/>
<path d="M7.79167 13.75C7.55333 13.75 7.315 13.6492 7.14083 13.4842C6.97583 13.31 6.875 13.0717 6.875 12.8333C6.875 12.595 6.97583 12.3567 7.14083 12.1825C7.3975 11.9258 7.80083 11.8433 8.14 11.99C8.25917 12.0358 8.36 12.1 8.4425 12.1825C8.6075 12.3567 8.70833 12.595 8.70833 12.8333C8.70833 13.0717 8.6075 13.31 8.4425 13.4842C8.26833 13.6492 8.03 13.75 7.79167 13.75Z" fill="white"/>
<path d="M10.9999 13.75C10.7616 13.75 10.5233 13.6492 10.3491 13.4842C10.1841 13.31 10.0833 13.0717 10.0833 12.8333C10.0833 12.595 10.1841 12.3567 10.3491 12.1825C10.4316 12.1 10.5324 12.0358 10.6516 11.99C10.9908 11.8433 11.3941 11.9258 11.6508 12.1825C11.8158 12.3567 11.9166 12.595 11.9166 12.8333C11.9166 13.0717 11.8158 13.31 11.6508 13.4842C11.6049 13.5208 11.5591 13.5575 11.5133 13.5942C11.4583 13.6308 11.4033 13.6583 11.3483 13.6767C11.2933 13.7042 11.2383 13.7225 11.1833 13.7317C11.1191 13.7408 11.0641 13.75 10.9999 13.75Z" fill="white"/>
<path d="M14.2084 13.75C13.9701 13.75 13.7317 13.6492 13.5576 13.4842C13.3926 13.31 13.2917 13.0717 13.2917 12.8333C13.2917 12.595 13.3926 12.3567 13.5576 12.1825C13.6492 12.1 13.7409 12.0358 13.8601 11.99C14.0251 11.9167 14.2084 11.8983 14.3917 11.935C14.4467 11.9442 14.5017 11.9625 14.5567 11.99C14.6117 12.0083 14.6667 12.0359 14.7217 12.0725C14.7676 12.1092 14.8134 12.1459 14.8592 12.1825C15.0242 12.3567 15.1251 12.595 15.1251 12.8333C15.1251 13.0717 15.0242 13.31 14.8592 13.4842C14.8134 13.5208 14.7676 13.5575 14.7217 13.5942C14.6667 13.6308 14.6117 13.6584 14.5567 13.6767C14.5017 13.7042 14.4467 13.7225 14.3917 13.7317C14.3276 13.7409 14.2634 13.75 14.2084 13.75Z" fill="white"/>
<path d="M7.79167 16.9583C7.6725 16.9583 7.55333 16.9309 7.44333 16.885C7.32417 16.8392 7.2325 16.775 7.14083 16.6925C6.97583 16.5183 6.875 16.28 6.875 16.0417C6.875 15.8033 6.97583 15.565 7.14083 15.3909C7.2325 15.3084 7.32417 15.2442 7.44333 15.1983C7.60833 15.125 7.79167 15.1067 7.975 15.1433C8.03 15.1525 8.085 15.1708 8.14 15.1983C8.195 15.2167 8.25 15.2442 8.305 15.2809C8.35083 15.3175 8.39667 15.3542 8.4425 15.3909C8.6075 15.565 8.70833 15.8033 8.70833 16.0417C8.70833 16.28 8.6075 16.5183 8.4425 16.6925C8.39667 16.7292 8.35083 16.775 8.305 16.8025C8.25 16.8392 8.195 16.8667 8.14 16.885C8.085 16.9125 8.03 16.9309 7.975 16.94C7.91083 16.9492 7.85583 16.9583 7.79167 16.9583Z" fill="white"/>
<path d="M10.9999 16.9583C10.7616 16.9583 10.5233 16.8575 10.3491 16.6925C10.1841 16.5183 10.0833 16.28 10.0833 16.0417C10.0833 15.8033 10.1841 15.565 10.3491 15.3908C10.6883 15.0517 11.3116 15.0517 11.6508 15.3908C11.8158 15.565 11.9166 15.8033 11.9166 16.0417C11.9166 16.28 11.8158 16.5183 11.6508 16.6925C11.4766 16.8575 11.2383 16.9583 10.9999 16.9583Z" fill="white"/>
<path d="M14.2084 16.9583C13.9701 16.9583 13.7317 16.8575 13.5576 16.6925C13.3926 16.5183 13.2917 16.28 13.2917 16.0417C13.2917 15.8033 13.3926 15.565 13.5576 15.3908C13.8967 15.0517 14.5201 15.0517 14.8592 15.3908C15.0242 15.565 15.1251 15.8033 15.1251 16.0417C15.1251 16.28 15.0242 16.5183 14.8592 16.6925C14.6851 16.8575 14.4467 16.9583 14.2084 16.9583Z" fill="white"/>
</svg>
