<svg width="22" height="22" viewBox="0 0 22 22" fill="none" xmlns="http://www.w3.org/2000/svg">
<path opacity="0.8" d="M11.8249 2.31L11.7974 2.37416L9.1391 8.54333H6.5266C5.90327 8.54333 5.3166 8.6625 4.7666 8.90083L6.37077 5.06916L6.40743 4.98666L6.46244 4.84C6.48994 4.77583 6.50827 4.72083 6.53577 4.67499C7.7366 1.89749 9.09327 1.265 11.8249 2.31Z" fill="white" fill-opacity="0.9"/>
<path d="M16.7658 8.72667C16.3533 8.6075 15.9225 8.54333 15.4733 8.54333H9.13916L11.7975 2.37416L11.825 2.31C11.9533 2.35583 12.0908 2.42 12.2283 2.46583L14.2542 3.31833C15.3817 3.78583 16.17 4.27166 16.6558 4.85833C16.7383 4.96833 16.8117 5.06916 16.885 5.18833C16.9675 5.31666 17.0317 5.445 17.0683 5.5825C17.105 5.665 17.1325 5.73833 17.1508 5.82083C17.3892 6.6 17.2425 7.54417 16.7658 8.72667Z" fill="white" fill-opacity="0.9"/>
<path opacity="0.4" d="M19.9466 13.0167V14.8042C19.9466 14.9875 19.9374 15.1708 19.9282 15.345C19.7541 18.5533 17.9666 20.1667 14.5749 20.1667H7.42489C7.19572 20.1667 6.98489 20.1483 6.77406 20.1208C3.85906 19.9283 2.30072 18.37 2.09906 15.455C2.07156 15.235 2.05322 15.0242 2.05322 14.8042V13.0167C2.05322 11.1742 3.17156 9.58834 4.76656 8.90084C5.31656 8.6625 5.90322 8.54333 6.52656 8.54333H15.4732C15.9224 8.54333 16.3532 8.6075 16.7657 8.72667C18.5991 9.28584 19.9466 10.9908 19.9466 13.0167Z" fill="white" fill-opacity="0.9"/>
<path opacity="0.6" d="M6.37072 5.06917L4.76656 8.90084C3.17156 9.58834 2.05322 11.1742 2.05322 13.0167V10.3308C2.05322 7.7275 3.90489 5.555 6.37072 5.06917Z" fill="white" fill-opacity="0.9"/>
<path opacity="0.6" d="M19.9467 10.3308V13.0167C19.9467 10.9908 18.5992 9.28584 16.7659 8.72667C17.2425 7.54417 17.3892 6.6 17.1509 5.82084C17.1325 5.73834 17.105 5.665 17.0684 5.5825C18.7825 6.47167 19.9467 8.2775 19.9467 10.3308Z" fill="white" fill-opacity="0.9"/>
</svg>
