<svg width="107" height="43" viewBox="0 0 107 43" fill="none" xmlns="http://www.w3.org/2000/svg">
<g clip-path="url(#clip0_1_893)">
<path d="M0.771346 24.4V0.109085H7.41562V19.0864H17.3103V24.4H0.771346ZM26.3536 24.4H19.1835L27.2618 0.109085H36.3439L44.4223 24.4H37.2521L31.8985 6.79857H31.7072L26.3536 24.4ZM25.0152 14.8165H38.495V19.7506H25.0152V14.8165ZM46.7793 24.4V0.109085H57.391C59.2554 0.109085 60.8209 0.358163 62.0876 0.856317C63.3623 1.35447 64.3223 2.05821 64.9675 2.96753C65.6208 3.87685 65.9474 4.9483 65.9474 6.18182C65.9474 7.07534 65.7483 7.88978 65.35 8.62514C64.9596 9.36052 64.4099 9.97727 63.7008 10.4754C62.9917 10.9657 62.1631 11.3057 61.2152 11.4955V11.7327C62.2667 11.7722 63.2229 12.0371 64.0833 12.5273C64.9435 13.0097 65.6288 13.6778 66.1387 14.5318C66.6485 15.3779 66.9034 16.3742 66.9034 17.5207C66.9034 18.8491 66.5529 20.0312 65.8519 21.0672C65.1587 22.103 64.1707 22.9174 62.8881 23.5104C61.6056 24.1034 60.0759 24.4 58.2992 24.4H46.7793ZM53.4236 19.1338H56.5306C57.6462 19.1338 58.4826 18.9282 59.0402 18.517C59.5979 18.098 59.8768 17.4812 59.8768 16.6668C59.8768 16.0974 59.7453 15.6151 59.4825 15.2197C59.2195 14.8244 58.8451 14.5239 58.3591 14.3183C57.8811 14.1127 57.3034 14.0099 56.6263 14.0099H53.4236V19.1338ZM53.4236 9.92982H56.1484C56.7299 9.92982 57.2437 9.83889 57.6899 9.65703C58.136 9.47515 58.4826 9.21422 58.7295 8.87422C58.9846 8.52629 59.1119 8.10325 59.1119 7.60511C59.1119 6.85391 58.8411 6.28066 58.2992 5.8853C57.7576 5.48204 57.0725 5.2804 56.2439 5.2804H53.4236V9.92982ZM69.2576 24.4V0.109085H86.896V5.42272H75.9018V9.59772H85.9879V14.9114H75.9018V19.0864H86.8483V24.4H69.2576ZM90.1913 24.4V0.109085H96.8356V19.0864H106.73V24.4H90.1913ZM0.100708 42.8V28.8364H10.2402V31.891H3.92016V34.291H9.71807V37.3454H3.92016V39.7454H10.2127V42.8H0.100708ZM12.1344 28.8364H16.8882L20.1581 36.7454H20.3229L23.5928 28.8364H28.3465V42.8H24.6096V34.7272H24.4995L21.3671 42.691H19.1139L15.9814 34.6728H15.8715V42.8H12.1344V28.8364ZM30.1566 42.8V28.8364H36.2294C37.2734 28.8364 38.1873 29.041 38.9703 29.45C39.7534 29.859 40.3625 30.434 40.7976 31.175C41.2326 31.916 41.4503 32.7818 41.4503 33.7728C41.4503 34.7728 41.2258 35.6386 40.777 36.3704C40.3327 37.1022 39.7076 37.666 38.9016 38.0614C38.1002 38.4568 37.1636 38.6546 36.092 38.6546H32.4649V35.709H35.3227C35.7714 35.709 36.1539 35.6318 36.4698 35.4772C36.7904 35.3182 37.0355 35.0932 37.2049 34.8022C37.3788 34.5114 37.4659 34.1682 37.4659 33.7728C37.4659 33.3728 37.3788 33.0318 37.2049 32.75C37.0355 32.4636 36.7904 32.2454 36.4698 32.0954C36.1539 31.941 35.7714 31.8636 35.3227 31.8636H33.9762V42.8H30.1566ZM56.4808 35.8182C56.4808 37.3728 56.1762 38.684 55.5672 39.7522C54.9581 40.816 54.1359 41.6228 53.101 42.1728C52.066 42.7182 50.9118 42.991 49.6387 42.991C48.3563 42.991 47.1976 42.716 46.1627 42.166C45.1322 41.6114 44.3125 40.8022 43.7035 39.7386C43.099 38.6704 42.7967 37.3636 42.7967 35.8182C42.7967 34.2636 43.099 32.9546 43.7035 31.891C44.3125 30.8228 45.1322 30.016 46.1627 29.4704C47.1976 28.9204 48.3563 28.6454 49.6387 28.6454C50.9118 28.6454 52.066 28.9204 53.101 29.4704C54.1359 30.016 54.9581 30.8228 55.5672 31.891C56.1762 32.9546 56.4808 34.2636 56.4808 35.8182ZM52.5515 35.8182C52.5515 34.9818 52.4392 34.2772 52.2147 33.7046C51.9949 33.1272 51.6675 32.691 51.2324 32.3954C50.802 32.0954 50.2706 31.9454 49.6387 31.9454C49.0068 31.9454 48.4732 32.0954 48.0381 32.3954C47.6077 32.691 47.2803 33.1272 47.0558 33.7046C46.8359 34.2772 46.7261 34.9818 46.7261 35.8182C46.7261 36.6546 46.8359 37.3614 47.0558 37.9386C47.2803 38.5114 47.6077 38.9478 48.0381 39.2478C48.4732 39.5432 49.0068 39.691 49.6387 39.691C50.2706 39.691 50.802 39.5432 51.2324 39.2478C51.6675 38.9478 51.9949 38.5114 52.2147 37.9386C52.4392 37.3614 52.5515 36.6546 52.5515 35.8182ZM58.2479 42.8V28.8364H64.3207C65.3649 28.8364 66.2785 29.025 67.0616 29.4022C67.8448 29.7796 68.4538 30.3228 68.8888 31.0318C69.3239 31.741 69.5415 32.591 69.5415 33.5818C69.5415 34.5818 69.317 35.425 68.8683 36.1114C68.4241 36.7978 67.7989 37.316 66.9928 37.666C66.1914 38.016 65.2548 38.191 64.1832 38.191H60.5561V35.2454H63.4139C63.8626 35.2454 64.2451 35.191 64.5611 35.0818C64.8817 34.9682 65.1267 34.7886 65.2962 34.5432C65.4701 34.2978 65.5571 33.9772 65.5571 33.5818C65.5571 33.1818 65.4701 32.8568 65.2962 32.6068C65.1267 32.3522 64.8817 32.166 64.5611 32.0478C64.2451 31.925 63.8626 31.8636 63.4139 31.8636H62.0674V42.8H58.2479ZM66.4915 36.391L70.0086 42.8H65.8594L62.4247 36.391H66.4915ZM74.989 28.8364V42.8H71.1697V28.8364H74.989ZM85.125 28.8364H88.9446V37.7818C88.9446 38.8454 88.688 39.766 88.1752 40.5432C87.6668 41.316 86.9569 41.9136 86.0455 42.3364C85.1343 42.7546 84.0764 42.9636 82.8718 42.9636C81.6583 42.9636 80.5957 42.7546 79.6843 42.3364C78.7729 41.9136 78.0632 41.316 77.5548 40.5432C77.051 39.766 76.7992 38.8454 76.7992 37.7818V28.8364H80.6187V37.4546C80.6187 37.8864 80.7148 38.2728 80.9071 38.6136C81.0995 38.95 81.3651 39.2136 81.704 39.4046C82.0474 39.5954 82.4367 39.691 82.8718 39.691C83.3114 39.691 83.7008 39.5954 84.0397 39.4046C84.3786 39.2136 84.6442 38.95 84.8364 38.6136C85.0289 38.2728 85.125 37.8864 85.125 37.4546V28.8364ZM90.7597 28.8364H95.5135L98.7833 36.7454H98.9484L102.218 28.8364H106.972V42.8H103.235V34.7272H103.125L99.9924 42.691H97.7393L94.6067 34.6728H94.4969V42.8H90.7597V28.8364Z" fill="white"/>
</g>
<defs>
<clipPath id="clip0_1_893">
<rect width="107" height="43" fill="white"/>
</clipPath>
</defs>
</svg>
