<svg width="24" height="24" viewBox="0 0 24 24" fill="none" xmlns="http://www.w3.org/2000/svg">
<path d="M5.1997 10.46C5.0097 10.46 4.8097 10.38 4.6697 10.24C4.4597 10.02 4.3897 9.7 4.5097 9.42L6.3697 4.98C6.4097 4.89 6.4297 4.83 6.4597 4.78C7.9397 1.37 9.8297 0.539999 13.1697 1.82C13.3597 1.89 13.5097 2.04 13.5897 2.23C13.6697 2.42 13.6697 2.63 13.5897 2.82L10.6597 9.62C10.5397 9.9 10.2697 10.07 9.9697 10.07H7.1197C6.5497 10.07 6.0097 10.18 5.4897 10.4C5.3997 10.44 5.2997 10.46 5.1997 10.46ZM10.6097 2.75C9.3697 2.75 8.6097 3.56 7.8197 5.4C7.8097 5.43 7.7897 5.46 7.7797 5.49L6.4697 8.6C6.6897 8.58 6.8997 8.57 7.1197 8.57H9.4697L11.8797 2.97C11.4097 2.82 10.9897 2.75 10.6097 2.75Z" fill="white"/>
<path d="M18.2902 10.27C18.2202 10.27 18.1402 10.26 18.0702 10.24C17.6902 10.13 17.2902 10.07 16.8702 10.07H9.97023C9.72023 10.07 9.48023 9.93999 9.34023 9.72999C9.21023 9.51999 9.18023 9.24999 9.28023 9.01999L12.1802 2.28999C12.3302 1.92999 12.7702 1.67999 13.1402 1.80999C13.2602 1.84999 13.3702 1.89999 13.4902 1.94999L15.8502 2.93999C17.2302 3.50999 18.1502 4.10999 18.7502 4.82999C18.8702 4.96999 18.9702 5.11999 19.0702 5.27999C19.1802 5.44999 19.2802 5.64999 19.3502 5.85999C19.3802 5.92999 19.4302 6.05999 19.4602 6.19999C19.7402 7.14999 19.6002 8.30999 19.0002 9.80999C18.8702 10.09 18.5902 10.27 18.2902 10.27ZM11.1102 8.56999H16.8802C17.2002 8.56999 17.5102 8.59999 17.8202 8.64999C18.1002 7.77999 18.1602 7.10999 18.0002 6.56999C17.9802 6.47999 17.9602 6.43999 17.9502 6.39999C17.8902 6.23999 17.8502 6.14999 17.8002 6.06999C17.7302 5.95999 17.6802 5.86999 17.6002 5.77999C17.1702 5.25999 16.4102 4.77999 15.2702 4.30999L13.3002 3.48999L11.1102 8.56999Z" fill="white"/>
<path d="M15.9 22.75H8.1C7.82 22.75 7.56 22.73 7.3 22.7C3.79 22.47 1.79 20.46 1.55 16.91C1.52 16.69 1.5 16.42 1.5 16.15V14.2C1.5 11.95 2.84 9.92001 4.91 9.02001C5.62 8.72001 6.36 8.57001 7.13 8.57001H16.89C17.46 8.57001 18.01 8.65001 18.52 8.81001C20.87 9.52001 22.52 11.74 22.52 14.2V16.15C22.52 16.37 22.51 16.58 22.5 16.78C22.28 20.69 20 22.75 15.9 22.75ZM7.12 10.07C6.55 10.07 6.01 10.18 5.49 10.4C3.97 11.06 2.99 12.55 2.99 14.2V16.15C2.99 16.36 3.01 16.57 3.03 16.77C3.22 19.62 4.62 21.02 7.43 21.21C7.68 21.24 7.88 21.26 8.09 21.26H15.89C19.19 21.26 20.81 19.81 20.97 16.71C20.98 16.53 20.99 16.35 20.99 16.15V14.2C20.99 12.39 19.78 10.77 18.06 10.24C17.68 10.13 17.28 10.07 16.86 10.07H7.12Z" fill="white"/>
<path d="M2.24023 14.95C1.83023 14.95 1.49023 14.61 1.49023 14.2V11.27C1.49023 8.12001 3.72023 5.40001 6.80023 4.80001C7.07023 4.75001 7.35023 4.85001 7.53023 5.06001C7.70023 5.27001 7.75023 5.57001 7.64023 5.82001L5.89023 10C5.81023 10.18 5.67023 10.32 5.50023 10.4C3.98023 11.06 3.00023 12.55 3.00023 14.2C2.99023 14.61 2.66023 14.95 2.24023 14.95ZM5.60023 6.82001C4.32023 7.54001 3.39023 8.80001 3.10023 10.27C3.54023 9.82001 4.05023 9.44001 4.63023 9.16001L5.60023 6.82001Z" fill="white"/>
<path d="M21.7592 14.95C21.3492 14.95 21.0092 14.61 21.0092 14.2C21.0092 12.39 19.7992 10.77 18.0792 10.24C17.8792 10.18 17.7092 10.04 17.6192 9.84999C17.5292 9.65999 17.5192 9.43999 17.5992 9.24999C18.0692 8.07999 18.1892 7.22999 17.9992 6.56999C17.9792 6.47999 17.9592 6.43999 17.9492 6.39999C17.8192 6.10999 17.8892 5.76999 18.1192 5.54999C18.3492 5.32999 18.6992 5.27999 18.9792 5.42999C21.1592 6.56999 22.5092 8.80999 22.5092 11.27V14.2C22.5092 14.61 22.1692 14.95 21.7592 14.95ZM19.2492 9.08999C19.8792 9.37999 20.4392 9.78999 20.9092 10.28C20.7192 9.29999 20.2492 8.40999 19.5592 7.70999C19.5092 8.12999 19.4092 8.58999 19.2492 9.08999Z" fill="white"/>
</svg>
